<?xml version="1.0"?>
<svg xmlns="http://www.w3.org/2000/svg" height="55px" viewBox="-49 0 511 511.99914" width="55px"><path d="m132.917969 216.679688v-14.792969c0-4.144531-3.359375-7.503907-7.503907-7.503907-4.140624 0-7.5 3.359376-7.5 7.503907v14.792969c0 4.140624 3.359376 7.5 7.5 7.5 4.144532 0 7.503907-3.359376 7.503907-7.5zm0 0" fill="#c50080"/><path d="m296.394531 216.679688v-14.792969c0-4.144531-3.359375-7.503907-7.5-7.503907-4.144531 0-7.503906 3.359376-7.503906 7.503907v14.792969c0 4.140624 3.359375 7.5 7.503906 7.5 4.140625 0 7.5-3.359376 7.5-7.5zm0 0" fill="#c50080"/><path d="m207.15625 232.078125c10.027344 0 19.4375-4.191406 25.820312-11.492187 2.726563-3.121094 2.410157-7.859376-.707031-10.585938-3.121093-2.726562-7.859375-2.410156-10.589843.710938-3.53125 4.042968-8.828126 6.363281-14.523438 6.363281-5.699219 0-10.992188-2.320313-14.527344-6.363281-2.722656-3.121094-7.464844-3.4375-10.585937-.710938-3.117188 2.726562-3.4375 7.464844-.710938 10.585938 6.382813 7.300781 15.796875 11.492187 25.824219 11.492187zm0 0" fill="#c50080"/><path d="m21.257812 342.585938 26.152344 110.582031c8.1875 34.636719 38.769532 58.832031 74.367188 58.832031h170.753906c35.59375 0 66.175781-24.191406 74.375-58.832031l26.15625-110.589844c13.109375-11.039063 21.285156-27.878906 20.722656-46.429687-2.097656-68.96875-19.625-121.65625-52.09375-156.601563-25.914062-27.894531-60.664062-44.765625-106.058594-51.472656-.71875-13.226563-6.757812-25.0625-16.011718-33.398438 3.222656-6.421875 6.960937-11.960937 11.167968-16.496093 7.398438-7.960938 8.253907-19.648438 2.082032-28.425782-8.175782-11.621094-25.277344-13.25-35.09375-2.765625-9.425782 10.0625-17.1875 22.445313-23.117188 36.835938-19.910156 5.308593-34.828125 22.976562-35.984375 44.253906-54.632812 8.074219-94.152343 30.953125-120.664062 69.828125-2.332031 3.421875-1.453125 8.089844 1.972656 10.425781 3.421875 2.332031 8.089844 1.449219 10.425781-1.972656 23.898438-35.042969 59.847656-55.808594 109.75-63.339844 4.828125 18.789063 20.375 32.820313 39.621094 35.71875 4.882812.738281 9.878906.734375 14.761719 0 19.230469-2.894531 34.78125-16.929687 39.613281-35.722656 41.546875 6.265625 73.179688 21.59375 96.546875 46.742187 29.921875 32.210938 46.101563 81.617188 48.085937 146.847657.714844 23.492187-18.371093 44.28125-42.121093 44.28125-18.105469 0-35.054688-11.703125-41.472657-28.644531-.574218-1.515626-.890624-3.171876-1.589843-4.632813-1.222657-2.582031-3.917969-4.285156-6.777344-4.285156-3.269531 0-6.3125 2.296875-7.210937 5.441406-2.140626 7.488281-6.335938 14.378906-11.960938 19.757813-8.179688 7.824218-19.335938 12.363281-30.664062 12.363281-19.308594 0-37.316407-13.546875-42.621094-32.121094-.003906-.015625-.007813-.027344-.011719-.039063-.84375-3.242187-4.101563-5.398437-7.398437-5.398437-3.25.097656-6.125 2.332031-7.027344 5.472656-5.359375 18.636719-23.234375 32.085938-42.613282 32.085938-19.433593 0-37.285156-13.441407-42.625-32.121094-.863281-3.023437-3.664062-5.238281-6.804687-5.410156-3.460937-.1875-6.664063 2.058593-7.621094 5.410156-4.796875 16.785156-19.84375 29.601563-37.148437 31.777344-25.773438 3.242187-48.375-18.257813-47.597656-43.9375 1.25-41.09375 8.140624-76.117188 20.480468-104.105469 1.671875-3.792969-.046875-8.21875-3.839844-9.890625-3.789062-1.671875-8.21875.046875-9.890624 3.835937-13.121094 29.761719-20.4375 66.671876-21.746094 109.703126-.5664065 18.554687 7.613281 35.398437 20.730468 46.4375zm207.472657-325.34375c3.378906-3.605469 9.144531-2.730469 11.871093 1.148437 2.054688 2.917969 1.722657 6.859375-.804687 9.578125-4.832031 5.203125-9.125 11.382812-12.816406 18.441406-.300781-.132812-.609375-.257812-.914063-.386718-3.625-1.449219-7.316406-2.59375-11.179687-3.214844-1.050781-.167969-2.105469-.308594-3.164063-.410156 4.707032-9.671876 10.402344-18.101563 17.007813-25.15625zm-27.265625 40.441406c19.941406-3.421875 39.242187 12.855468 39.242187 33.0625 0 17.996094-15.476562 33.515625-33.457031 33.546875-.03125 0-.15625 0-.1875 0-18.050781-.285157-33.460938-15.386719-33.460938-33.546875 0-16.5625 12.066407-30.347656 27.863282-33.0625zm-139.453125 392.03125-22.925781-96.929688c1.558593.542969 3.144531 1.007813 4.746093 1.410156 23.496094 5.890626 48.871094-4.148437 62.617188-23.925781.203125-.292969.394531-.589843.59375-.886719.144531-.214843.292969-.425781.433593-.644531.125.191407.261719.375.386719.5625 2.101563 3.175781 4.5625 6.210938 7.253907 8.933594l17.425781 158.761719h-10.769531c-28.605469 0-53.183594-19.441406-59.761719-47.28125zm84.351562-94.863282c19.167969 3.589844 39.355469-2.78125 53.089844-16.589843.0625-.066407.132813-.128907.199219-.195313v158.929688h-52.015625l-16.136719-147.011719c4.441406 2.148437 9.140625 3.710937 13.992188 4.695313.289062.058593.582031.117187.871093.171874zm113.664063.957032c7.882812-.410156 15.691406-2.394532 22.78125-5.824219 0 0-7.878906 71.785156-7.882813 71.808594-.445312 4.058593 2.582031 7.832031 6.636719 8.277343 4.003906.4375 7.835938-2.632812 8.277344-6.640624l9.355468-85.179688c2.410157-2.441406 4.582032-5.082031 6.523438-7.875.152344-.21875 1.1875-1.519531 1.117188-1.632812.164062.253906.335937.503906.507812.757812 14.554688 21.644531 43.023438 31.9375 67.886719 23.285156l-22.925781 96.929688c-6.589844 27.835937-31.171876 47.28125-59.773438 47.28125h-10.769531s4.78125-43.546875 4.785156-43.558594c.445313-4.058594-2.585937-7.828125-6.640625-8.273438-4.027344-.441406-7.832031 2.609376-8.277344 6.636719l-4.960937 45.195313h-52.007813v-158.925782c.066406.066407.132813.128907.199219.195313 11.761719 11.847656 28.484375 18.40625 45.167969 17.542969zm0 0" fill="#c50080"/></svg>
